<svg width="64" height="64" viewBox="0 0 64 64" fill="none" xmlns="http://www.w3.org/2000/svg">
<g clip-path="url(#clip0_77_36)">
<path d="M32 64C46.0222 64 53.8174 64 58.9087 58.9087C64 53.8174 64 46.0222 64 32C64 17.9778 64 10.1826 58.9087 5.09131C53.8174 -9.53674e-07 46.0222 0 32 0C17.9778 0 10.1826 -9.53674e-07 5.09131 5.09131C-9.53674e-07 10.1826 0 17.9778 0 32C0 46.0222 -9.53674e-07 53.8174 5.09131 58.9087C10.1826 64 17.9778 64 32 64Z" fill="#DC2626"/>
<rect x="10" y="35" width="22" height="6" rx="3" fill="#FFECBF"/>
<rect x="10" y="46" width="22" height="6" rx="3" fill="#FFECBF"/>
<g filter="url(#filter0_g_77_36)">
<rect x="34" y="10" width="20" height="20" rx="4" fill="#FCFFFE"/>
</g>
</g>
<defs>
<filter id="filter0_g_77_36" x="30" y="6" width="28" height="28" filterUnits="userSpaceOnUse" color-interpolation-filters="sRGB">
<feFlood flood-opacity="0" result="BackgroundImageFix"/>
<feBlend mode="normal" in="SourceGraphic" in2="BackgroundImageFix" result="shape"/>
<feTurbulence type="fractalNoise" baseFrequency="2 2" numOctaves="3" seed="1254" />
<feDisplacementMap in="shape" scale="8" xChannelSelector="R" yChannelSelector="G" result="displacedImage" width="100%" height="100%" />
<feMerge result="effect1_texture_77_36">
<feMergeNode in="displacedImage"/>
</feMerge>
</filter>
<clipPath id="clip0_77_36">
<rect width="64" height="64" fill="white"/>
</clipPath>
</defs>
</svg>
