<svg width="197" height="30" viewBox="0 0 197 30" fill="none" xmlns="http://www.w3.org/2000/svg">
<path d="M183.619 29.9602C180.846 29.9602 178.553 28.9668 176.739 26.9802C174.926 24.9802 174.019 22.3335 174.019 19.0402C174.019 15.8002 174.946 13.1535 176.799 11.1002C178.666 9.04682 181.033 8.02016 183.899 8.02016C185.219 8.02016 186.439 8.28682 187.559 8.82016C188.693 9.35349 189.546 10.0735 190.119 10.9802L190.199 10.9602V0.660156H196.439V29.3002H190.439V25.9202L191.019 26.6602L190.359 26.7002C189.746 27.6868 188.839 28.4802 187.639 29.0802C186.439 29.6668 185.099 29.9602 183.619 29.9602ZM185.239 24.7002C186.706 24.7002 187.926 24.1668 188.899 23.1002C189.873 22.0202 190.359 20.6535 190.359 19.0002C190.359 17.3202 189.866 15.9535 188.879 14.9002C187.893 13.8468 186.679 13.3202 185.239 13.3202C183.786 13.3202 182.566 13.8468 181.579 14.9002C180.593 15.9535 180.099 17.3202 180.099 19.0002C180.099 20.6668 180.586 22.0335 181.559 23.1002C182.546 24.1668 183.773 24.7002 185.239 24.7002Z" fill="#DC2626"/>
<path d="M158.894 29.3V8.64H164.854V12.56L164.254 11.8H164.974C165.401 10.6533 166.134 9.73333 167.174 9.04C168.214 8.34667 169.314 8 170.474 8C170.834 8 171.201 8.03333 171.574 8.1C171.947 8.15333 172.287 8.23333 172.594 8.34C172.901 8.44667 173.054 8.5 173.054 8.5V14.3C173.054 14.3 172.861 14.2267 172.474 14.08C172.087 13.9333 171.654 13.8133 171.174 13.72C170.694 13.6133 170.234 13.56 169.794 13.56C168.447 13.56 167.341 14.04 166.474 15C165.607 15.9467 165.174 17.2 165.174 18.76V29.3H158.894Z" fill="#DC2626"/>
<path d="M141.674 29.96C139.434 29.96 137.627 29.3533 136.254 28.14C134.88 26.9133 134.194 25.3067 134.194 23.32C134.194 21.2 135.007 19.5267 136.634 18.3C138.274 17.06 140.414 16.44 143.054 16.44C144.08 16.44 145.054 16.54 145.974 16.74C146.894 16.94 147.694 17.2 148.374 17.52V16.34C148.374 15.18 147.974 14.2667 147.174 13.6C146.374 12.9333 145.3 12.6 143.954 12.6C143.14 12.6 142.44 12.6867 141.854 12.86C141.28 13.0333 140.72 13.2733 140.174 13.58C139.64 13.8733 139.16 14.2067 138.734 14.58C138.32 14.9533 138.114 15.14 138.114 15.14L134.854 11.82C134.854 11.82 135.214 11.5333 135.934 10.96C136.667 10.3733 137.46 9.85333 138.314 9.4C139.167 8.94667 140.12 8.6 141.174 8.36C142.227 8.12 143.387 8 144.654 8C147.734 8 150.134 8.72667 151.854 10.18C153.587 11.62 154.454 13.6733 154.454 16.34V29.3H148.454V25L149.794 26.7H148.334C147.707 27.66 146.814 28.4467 145.654 29.06C144.494 29.66 143.167 29.96 141.674 29.96ZM143.594 25.84C145.007 25.84 146.154 25.3467 147.034 24.36C147.927 23.3733 148.374 22.1 148.374 20.54V20.5C147.867 20.2067 147.26 19.9733 146.554 19.8C145.86 19.6267 145.114 19.54 144.314 19.54C143.047 19.54 142.014 19.8133 141.214 20.36C140.427 20.9067 140.034 21.7267 140.034 22.82C140.034 23.78 140.36 24.5267 141.014 25.06C141.667 25.58 142.527 25.84 143.594 25.84Z" fill="#DC2626"/>
<path d="M121.036 29.96C116.703 29.96 113.123 28.5467 110.296 25.72C107.483 22.8933 106.076 19.3067 106.076 14.96C106.076 10.5867 107.496 7 110.336 4.2C113.176 1.4 116.75 0 121.056 0C122.416 0 123.723 0.173333 124.976 0.52C126.23 0.866666 127.383 1.34667 128.436 1.96C129.503 2.56 130.35 3.17333 130.976 3.8C131.616 4.42667 131.936 4.74 131.936 4.74L127.636 9.28C127.636 9.28 127.43 9.06 127.016 8.62C126.603 8.18 126.096 7.78 125.496 7.42C124.91 7.06 124.25 6.78 123.516 6.58C122.783 6.36667 121.983 6.26 121.116 6.26C118.69 6.26 116.663 7.06 115.036 8.66C113.423 10.26 112.616 12.3533 112.616 14.94C112.616 17.5133 113.416 19.62 115.016 21.26C116.616 22.8867 118.643 23.7 121.096 23.7C121.99 23.7 122.836 23.58 123.636 23.34C124.436 23.0867 125.176 22.74 125.856 22.3C126.536 21.86 127.07 21.4133 127.456 20.96C127.856 20.4933 128.056 20.26 128.056 20.26L132.496 24.72C132.496 24.72 132.163 25.0867 131.496 25.82C130.843 26.54 129.956 27.2267 128.836 27.88C127.73 28.5333 126.516 29.04 125.196 29.4C123.876 29.7733 122.49 29.96 121.036 29.96Z" fill="#DC2626"/>
<path d="M89.635 29.9602C86.8617 29.9602 84.5684 28.9668 82.755 26.9802C80.9417 24.9802 80.035 22.3335 80.035 19.0402C80.035 15.8002 80.9617 13.1535 82.815 11.1002C84.6817 9.04682 87.0484 8.02016 89.915 8.02016C91.235 8.02016 92.455 8.28682 93.575 8.82016C94.7084 9.35349 95.5617 10.0735 96.135 10.9802L96.215 10.9602V0.660156H102.455V29.3002H96.455V25.9202L97.035 26.6602L96.375 26.7002C95.7617 27.6868 94.855 28.4802 93.655 29.0802C92.455 29.6668 91.115 29.9602 89.635 29.9602ZM91.255 24.7002C92.7217 24.7002 93.9417 24.1668 94.915 23.1002C95.8884 22.0202 96.375 20.6535 96.375 19.0002C96.375 17.3202 95.8817 15.9535 94.895 14.9002C93.9084 13.8468 92.695 13.3202 91.255 13.3202C89.8017 13.3202 88.5817 13.8468 87.595 14.9002C86.6084 15.9535 86.115 17.3202 86.115 19.0002C86.115 20.6668 86.6017 22.0335 87.575 23.1002C88.5617 24.1668 89.7884 24.7002 91.255 24.7002Z" fill="#4D1A13"/>
<path d="M64.9097 29.3V8.64H70.8697V12.56L70.2697 11.8H70.9897C71.4163 10.6533 72.1497 9.73333 73.1897 9.04C74.2297 8.34667 75.3297 8 76.4897 8C76.8497 8 77.2163 8.03333 77.5897 8.1C77.963 8.15333 78.303 8.23333 78.6097 8.34C78.9163 8.44667 79.0697 8.5 79.0697 8.5V14.3C79.0697 14.3 78.8763 14.2267 78.4897 14.08C78.103 13.9333 77.6697 13.8133 77.1897 13.72C76.7097 13.6133 76.2497 13.56 75.8097 13.56C74.463 13.56 73.3563 14.04 72.4897 15C71.623 15.9467 71.1897 17.2 71.1897 18.76V29.3H64.9097Z" fill="#4D1A13"/>
<path d="M50.2403 29.96C46.9737 29.96 44.2803 28.92 42.1603 26.84C40.0403 24.76 38.9803 22.14 38.9803 18.98C38.9803 15.7933 40.0403 13.1667 42.1603 11.1C44.2803 9.03333 46.9737 8 50.2403 8C53.507 8 56.2003 9.04 58.3203 11.12C60.4537 13.1867 61.5203 15.8067 61.5203 18.98C61.5203 22.14 60.4603 24.76 58.3403 26.84C56.2203 28.92 53.5203 29.96 50.2403 29.96ZM50.2603 24.6C51.727 24.6 52.9537 24.0733 53.9403 23.02C54.927 21.9533 55.4203 20.6067 55.4203 18.98C55.4203 17.3267 54.9203 15.9733 53.9203 14.92C52.9337 13.8667 51.7137 13.34 50.2603 13.34C48.7803 13.34 47.5403 13.8667 46.5403 14.92C45.5537 15.9733 45.0603 17.3267 45.0603 18.98C45.0603 20.6067 45.5537 21.9533 46.5403 23.02C47.5403 24.0733 48.7803 24.6 50.2603 24.6Z" fill="#4D1A13"/>
<path d="M7.74 29.3002L0 0.660156H6.68L10.96 17.7802L11.38 19.6802H11.5L12.02 17.7802L17.3 0.660156H22.76L27.76 17.7802L28.3 19.6602H28.42L28.86 17.7802L33.12 0.660156H39.54L31.78 29.3002H25.64L20.4 11.7402L19.82 9.62016H19.7L19.12 11.7402L13.78 29.3002H7.74Z" fill="#4D1A13"/>
</svg>
